<?xml version="1.0" encoding="UTF-8" standalone="no"?>
<!-- Created with Inkscape (http://www.inkscape.org/) -->

<svg
   width="130"
   height="180"
   viewBox="0 0 130 180"
   version="1.1"
   id="svg1"
   inkscape:version="1.2.2 (b0a8486541, 2022-12-01)"
   xml:space="preserve"
   sodipodi:docname="Recycle Card.svg"
   inkscape:export-filename="../CardImages/Recycle Card.png"
   inkscape:export-xdpi="96"
   inkscape:export-ydpi="96"
   xmlns:inkscape="http://www.inkscape.org/namespaces/inkscape"
   xmlns:sodipodi="http://sodipodi.sourceforge.net/DTD/sodipodi-0.dtd"
   xmlns="http://www.w3.org/2000/svg"
   xmlns:svg="http://www.w3.org/2000/svg"
   xmlns:rdf="http://www.w3.org/1999/02/22-rdf-syntax-ns#"
   xmlns:cc="http://creativecommons.org/ns#"><sodipodi:namedview
     id="namedview1"
     pagecolor="#ffffff"
     bordercolor="#000000"
     borderopacity="0.25"
     inkscape:showpageshadow="2"
     inkscape:pageopacity="0.0"
     inkscape:pagecheckerboard="0"
     inkscape:deskcolor="#d1d1d1"
     inkscape:document-units="px"
     inkscape:zoom="2.8284271"
     inkscape:cx="16.61701"
     inkscape:cy="94.575533"
     inkscape:window-width="1366"
     inkscape:window-height="700"
     inkscape:window-x="0"
     inkscape:window-y="0"
     inkscape:window-maximized="1"
     inkscape:current-layer="layer5"
     showguides="true"
     showgrid="false"><sodipodi:guide
       position="-79.75,-182820"
       orientation="0,1"
       id="guide19"
       inkscape:locked="false"
       inkscape:label=""
       inkscape:color="rgb(0,134,229)" /><sodipodi:guide
       position="65,154"
       orientation="0,1"
       id="guide311"
       inkscape:locked="false"
       inkscape:label=""
       inkscape:color="rgb(0,134,229)" /><sodipodi:guide
       position="65,25.5"
       orientation="0,1"
       id="guide315"
       inkscape:locked="false"
       inkscape:label=""
       inkscape:color="rgb(0,134,229)" /><sodipodi:guide
       position="65,89.25"
       orientation="0,1"
       id="guide319"
       inkscape:locked="false"
       inkscape:label=""
       inkscape:color="rgb(0,134,229)" /><sodipodi:guide
       position="11,118.625"
       orientation="-1,0"
       id="guide323"
       inkscape:locked="false"
       inkscape:label=""
       inkscape:color="rgb(0,134,229)" /><sodipodi:guide
       position="120,118.625"
       orientation="-1,0"
       id="guide325"
       inkscape:locked="false"
       inkscape:label=""
       inkscape:color="rgb(0,134,229)" /><sodipodi:guide
       position="65,55.549205"
       orientation="-1,0"
       id="guide769"
       inkscape:locked="false"
       inkscape:label=""
       inkscape:color="rgb(0,134,229)" /></sodipodi:namedview><defs
     id="defs1"><inkscape:path-effect
       effect="fillet_chamfer"
       id="path-effect23"
       is_visible="true"
       lpeversion="1"
       nodesatellites_param="F,0,0,1,0,3,0,1 @ F,0,0,1,0,3,0,1 @ F,0,0,1,0,3,0,1 @ F,0,0,1,0,3,0,1"
       radius="0"
       unit="px"
       method="auto"
       mode="F"
       chamfer_steps="1"
       flexible="false"
       use_knot_distance="true"
       apply_no_radius="true"
       apply_with_radius="true"
       only_selected="false"
       hide_knots="false" /><inkscape:path-effect
       effect="fillet_chamfer"
       id="path-effect22"
       is_visible="true"
       lpeversion="1"
       nodesatellites_param="F,0,0,1,0,3,0,1 @ F,0,0,1,0,3,0,1 @ F,0,0,1,0,3,0,1 @ F,0,0,1,0,3,0,1"
       radius="0"
       unit="px"
       method="auto"
       mode="F"
       chamfer_steps="1"
       flexible="false"
       use_knot_distance="true"
       apply_no_radius="true"
       apply_with_radius="true"
       only_selected="false"
       hide_knots="false" /><inkscape:path-effect
       effect="fillet_chamfer"
       id="path-effect11"
       is_visible="true"
       lpeversion="1"
       nodesatellites_param="F,0,1,1,0,10,0,1 @ F,0,0,1,0,10,0,1 @ F,0,0,1,0,10,0,1 @ F,0,0,1,0,10,0,1"
       radius="0"
       unit="px"
       method="auto"
       mode="F"
       chamfer_steps="1"
       flexible="false"
       use_knot_distance="true"
       apply_no_radius="true"
       apply_with_radius="true"
       only_selected="false"
       hide_knots="false" /><inkscape:path-effect
       effect="fillet_chamfer"
       id="path-effect10"
       is_visible="true"
       lpeversion="1"
       nodesatellites_param="F,0,0,1,0,10,0,1 @ F,0,0,1,0,10,0,1 @ F,0,0,1,0,10,0,1 @ F,0,0,1,0,10,0,1"
       radius="0"
       unit="px"
       method="auto"
       mode="F"
       chamfer_steps="1"
       flexible="false"
       use_knot_distance="true"
       apply_no_radius="true"
       apply_with_radius="true"
       only_selected="false"
       hide_knots="false" /><inkscape:path-effect
       effect="fillet_chamfer"
       id="path-effect9"
       is_visible="true"
       lpeversion="1"
       nodesatellites_param="F,0,0,1,0,0,0,1 @ F,0,0,1,0,10,0,1 @ F,0,0,1,0,0,0,1 @ F,0,0,1,0,0,0,1"
       radius="0"
       unit="px"
       method="auto"
       mode="F"
       chamfer_steps="1"
       flexible="false"
       use_knot_distance="true"
       apply_no_radius="true"
       apply_with_radius="true"
       only_selected="false"
       hide_knots="false" /><inkscape:path-effect
       effect="fillet_chamfer"
       id="path-effect8"
       is_visible="true"
       lpeversion="1"
       nodesatellites_param="F,0,0,1,0,0,0,1 @ F,0,0,1,0,0,0,1 @ F,0,0,1,0,0,0,1 @ F,0,0,1,0,0,0,1"
       radius="0"
       unit="px"
       method="auto"
       mode="F"
       chamfer_steps="1"
       flexible="false"
       use_knot_distance="true"
       apply_no_radius="true"
       apply_with_radius="true"
       only_selected="false"
       hide_knots="false" /><inkscape:path-effect
       effect="fillet_chamfer"
       id="path-effect7"
       is_visible="true"
       lpeversion="1"
       nodesatellites_param="F,0,0,1,0,0,0,1 @ F,0,0,1,0,0,0,1 @ F,0,0,1,0,0,0,1 @ F,0,0,1,0,0,0,1"
       radius="0"
       unit="px"
       method="auto"
       mode="F"
       chamfer_steps="1"
       flexible="false"
       use_knot_distance="true"
       apply_no_radius="true"
       apply_with_radius="true"
       only_selected="false"
       hide_knots="false" /><inkscape:path-effect
       effect="fillet_chamfer"
       id="path-effect22-7"
       is_visible="true"
       lpeversion="1"
       nodesatellites_param="F,0,0,1,0,3,0,1 @ F,0,0,1,0,3,0,1 @ F,0,0,1,0,3,0,1 @ F,0,0,1,0,3,0,1"
       radius="0"
       unit="px"
       method="auto"
       mode="F"
       chamfer_steps="1"
       flexible="false"
       use_knot_distance="true"
       apply_no_radius="true"
       apply_with_radius="true"
       only_selected="false"
       hide_knots="false" /><inkscape:path-effect
       effect="fillet_chamfer"
       id="path-effect23-1"
       is_visible="true"
       lpeversion="1"
       nodesatellites_param="F,0,0,1,0,3,0,1 @ F,0,0,1,0,3,0,1 @ F,0,0,1,0,3,0,1 @ F,0,0,1,0,3,0,1"
       radius="0"
       unit="px"
       method="auto"
       mode="F"
       chamfer_steps="1"
       flexible="false"
       use_knot_distance="true"
       apply_no_radius="true"
       apply_with_radius="true"
       only_selected="false"
       hide_knots="false" /></defs><g
     inkscape:label="Background"
     inkscape:groupmode="layer"
     id="layer1"><path
       id="rect1"
       style="display:none;opacity:1;fill:#00ff00"
       d="m 10,0 h 110 a 10,10 45 0 1 10,10 v 160 a 10,10 135 0 1 -10,10 H 10 A 10,10 45 0 1 0,170 V 10 A 10,10 135 0 1 10,0 Z"
       inkscape:path-effect="#path-effect10"
       inkscape:original-d="M 0,0 H 130 V 180 H 0 Z"
       inkscape:label="rect1"
       sodipodi:insensitive="true" /><path
       id="rect2"
       style="opacity:1;fill:#e5ffd5;fill-opacity:1;stroke-width:1.00037"
       d="m 16,7 h 98 a 10,10 45 0 1 10,10 l 0,145 a 10,10 135 0 1 -10,10 H 16 A 10,10 45 0 1 6,162 V 17 A 10,10 135 0 1 16,7 Z"
       inkscape:path-effect="#path-effect11"
       inkscape:original-d="M 6,7 H 124 V 172 H 6 Z"
       inkscape:label="rect2" /></g><g
     inkscape:groupmode="layer"
     id="layer3"
     inkscape:label="Main"
     inkscape:highlight-color="#36a949"><g
       id="g1"><path
         style="opacity:1;fill:#008000"
         d="M 65.265335,53.25 51.709921,77.560376 29,65.363777 40.950924,43.570124 C 45.39014,40.546131 45.471159,39.96902 54.194335,40.5 c 5.084057,2.188064 5.451747,3.860885 11.071,12.75 z"
         id="path1"
         sodipodi:nodetypes="cccccc" /><path
         style="opacity:1;fill:#00ff00"
         d="m 54.194335,40.5 h 27.283437 c 4.122466,0.368538 4.566505,1.680933 6.383092,3.350009 l 6.762835,12.21337 8.126251,-4.983125 -11.581187,21.543689 -26.530887,1.437945 9.68352,-5.395514 L 65.265335,53.25 C 62.281833,48.805205 59.533384,42.103681 54.194335,40.5 Z"
         id="path2"
         sodipodi:nodetypes="cccccccccc" /></g><g
       id="g2"
       transform="translate(1.891)"><path
         style="opacity:1;fill:#008000"
         d="M 97.769899,108.324 83.626603,84.078689 105.53608,71.429244 117.44562,92.057159 c 0.8859,2.185226 0.84919,4.308624 0.84919,6.612393 C 117.94625,101.5111 115.122,105.174 115.122,105.174 l -4.869,3.15 z"
         id="path3"
         sodipodi:nodetypes="cccccccc" /><path
         style="opacity:1;fill:#00ff00"
         d="m 115.122,105.174 -4.869,3.15 -30.253,3e-4 V 97.053745 l -12.891,22.312455 13.14,22.75956 v -9.58995 l 13.646766,1.9e-4 c 4.198527,-1.8126 6.581264,-3.67758 8.757114,-7.44626 z"
         id="path4"
         sodipodi:nodetypes="cccccccccc" /></g><g
       id="g3"
       transform="translate(-1)"><path
         style="opacity:1;fill:#008000"
         d="M 60.938161,108.324 H 33.363 l -6.267,9.994 v 5.16 c 1.759388,5.32791 6.660025,10.26593 9.28219,9.058 h 24.568861 z"
         id="path5"
         sodipodi:nodetypes="ccccccc" /><path
         style="opacity:1;fill:#00ff00"
         d="m 27.096,123.478 c 0,0 -18.1251593,-26.836654 -13.167155,-31.808373 L 19.982125,81.185038 12,76 H 37.950128 L 51,97.5 42.221161,92.684355 33.363,108.324 l -6.267,9.994 z"
         id="path6"
         sodipodi:nodetypes="cccccccccc" /></g></g><g
     inkscape:label="Border"
     inkscape:groupmode="layer"
     id="layer1-3"
     style="display:inline;fill:#008000"
     inkscape:highlight-color="#36a949"><path
       id="rect1_rect2_difference"
       style="display:inline;fill:#008000;stroke:none;stroke-width:5;stroke-dasharray:none"
       d="M 10,0 A 10,10 0 0 0 0,10 v 160 a 10,10 0 0 0 10,10 h 110 a 10,10 0 0 0 10,-10 V 10 A 10,10 0 0 0 120,0 Z m 6,7 h 98 a 10,10 0 0 1 10,10 v 145 a 10,10 0 0 1 -10,10 H 16 A 10,10 0 0 1 6,162 V 17 A 10,10 0 0 1 16,7 Z"
       inkscape:label="rect1_rect2_difference" /></g><g
     inkscape:groupmode="layer"
     id="layer4"
     inkscape:label="TextBottomRight"><path
       id="rect3"
       style="opacity:1;fill:#ffffff;fill-opacity:1;stroke-width:0.728914"
       d="m 98,154 h 20 a 3,3 45 0 1 3,3 v 9.5 a 3,3 135 0 1 -3,3 H 98 a 3,3 45 0 1 -3,-3 V 157 a 3,3 135 0 1 3,-3 z"
       inkscape:path-effect="#path-effect23"
       inkscape:original-d="m 95,154 h 26 v 15.5 H 95 Z"
       transform="matrix(1,0,0,1.0322581,0,-5.4677474)"
       inkscape:label="rect3" /><path
       id="rect4"
       style="opacity:1;fill:#008000;fill-opacity:1;stroke-width:1.05702"
       d="M 99.000262,154.5 H 117 a 2.9999443,2.9999443 45.000532 0 1 2.99994,3 l -1.4e-4,8 a 3.0000557,3.0000557 135.00053 0 1 -3.00006,3 H 99 a 2.9999439,2.9999439 45.000536 0 1 -2.999944,-3 l 1.5e-4,-8 a 3.0000561,3.0000561 135.00054 0 1 3.000056,-3 z"
       sodipodi:nodetypes="ccccc"
       inkscape:path-effect="#path-effect22"
       inkscape:original-d="M 96.000262,154.5 H 120 l -2.6e-4,14 H 96 Z"
       inkscape:label="rect4" /><text
       xml:space="preserve"
       style="font-style:normal;font-variant:normal;font-weight:normal;font-stretch:normal;font-size:12px;font-family:Sans;-inkscape-font-specification:Sans;text-align:start;writing-mode:lr-tb;direction:ltr;text-anchor:start;display:inline;opacity:1;fill:#000000;fill-opacity:1"
       x="95.919998"
       y="165.56799"
       id="text1"
       inkscape:label="text1"><tspan
         x="95.919998"
         y="165.56799"
         style="font-style:normal;font-variant:normal;font-weight:bold;font-stretch:normal;font-size:12px;font-family:Sans;-inkscape-font-specification:'Sans Bold';fill:#ffffff;fill-opacity:1"
         sodipodi:role="line"
         id="tspan1121">RCY</tspan></text></g><g
     inkscape:groupmode="layer"
     id="layer5"
     inkscape:label="TextTopLeft"><path
       id="rect5"
       style="opacity:1;fill:#ffffff;fill-opacity:1;stroke-width:0.728914"
       d="m 98,154 h 20 a 3,3 45 0 1 3,3 v 9.5 a 3,3 135 0 1 -3,3 H 98 a 3,3 45 0 1 -3,-3 V 157 a 3,3 135 0 1 3,-3 z"
       inkscape:path-effect="#path-effect23-1"
       inkscape:original-d="m 95,154 h 26 v 15.5 H 95 Z"
       transform="matrix(1,0,0,1.0322581,-85,-147.96775)"
       inkscape:label="rect5" /><path
       id="rect6"
       style="opacity:1;fill:#008000;fill-opacity:1;stroke-width:1.05702"
       d="M 99.000262,154.5 H 117 a 2.9999443,2.9999443 45.000532 0 1 2.99994,3 l -1.4e-4,8 a 3.0000557,3.0000557 135.00053 0 1 -3.00006,3 H 99 a 2.9999439,2.9999439 45.000536 0 1 -2.999944,-3 l 1.5e-4,-8 a 3.0000561,3.0000561 135.00054 0 1 3.000056,-3 z"
       sodipodi:nodetypes="ccccc"
       inkscape:path-effect="#path-effect22-7"
       inkscape:original-d="M 96.000262,154.5 H 120 l -2.6e-4,14 H 96 Z"
       inkscape:label="rect6"
       transform="translate(-85,-142.5)" /><text
       xml:space="preserve"
       style="font-style:normal;font-variant:normal;font-weight:normal;font-stretch:normal;font-size:12px;font-family:Sans;-inkscape-font-specification:Sans;text-align:start;writing-mode:lr-tb;direction:ltr;text-anchor:start;display:inline;opacity:1;fill:#000000;fill-opacity:1"
       x="10.919998"
       y="23.067993"
       id="text2"
       inkscape:label="text2"><tspan
         x="10.919998"
         y="23.067993"
         style="font-style:normal;font-variant:normal;font-weight:bold;font-stretch:normal;font-size:12px;font-family:Sans;-inkscape-font-specification:'Sans Bold';fill:#ffffff;fill-opacity:1"
         sodipodi:role="line"
         id="tspan26">RCY</tspan></text></g><metadata
     id="metadata1"><rdf:RDF><cc:Work
         rdf:about=""><cc:license
           rdf:resource="http://creativecommons.org/publicdomain/zero/1.0/" /></cc:Work><cc:License
         rdf:about="http://creativecommons.org/publicdomain/zero/1.0/"><cc:permits
           rdf:resource="http://creativecommons.org/ns#Reproduction" /><cc:permits
           rdf:resource="http://creativecommons.org/ns#Distribution" /><cc:permits
           rdf:resource="http://creativecommons.org/ns#DerivativeWorks" /></cc:License></rdf:RDF></metadata><inkscape:templateinfo><inkscape:name>CustomCardTemplate</inkscape:name><inkscape:author>Dan</inkscape:author><inkscape:date>2025-01-21</inkscape:date></inkscape:templateinfo></svg>
