<?xml version="1.0" encoding="UTF-8" standalone="no"?>
<!-- Created with Inkscape (http://www.inkscape.org/) -->

<svg
   width="130"
   height="180"
   viewBox="0 0 130 180"
   version="1.1"
   id="svg1"
   inkscape:version="1.2.2 (b0a8486541, 2022-12-01)"
   xml:space="preserve"
   sodipodi:docname="Immobilize Card.svg"
   xmlns:inkscape="http://www.inkscape.org/namespaces/inkscape"
   xmlns:sodipodi="http://sodipodi.sourceforge.net/DTD/sodipodi-0.dtd"
   xmlns="http://www.w3.org/2000/svg"
   xmlns:svg="http://www.w3.org/2000/svg"
   xmlns:rdf="http://www.w3.org/1999/02/22-rdf-syntax-ns#"
   xmlns:cc="http://creativecommons.org/ns#"><sodipodi:namedview
     id="namedview1"
     pagecolor="#ffffff"
     bordercolor="#000000"
     borderopacity="0.25"
     inkscape:showpageshadow="2"
     inkscape:pageopacity="0.0"
     inkscape:pagecheckerboard="0"
     inkscape:deskcolor="#d1d1d1"
     inkscape:document-units="px"
     inkscape:zoom="4"
     inkscape:cx="60.5"
     inkscape:cy="127.125"
     inkscape:window-width="1366"
     inkscape:window-height="700"
     inkscape:window-x="0"
     inkscape:window-y="0"
     inkscape:window-maximized="1"
     inkscape:current-layer="layer4"
     showguides="true"
     showgrid="false"><sodipodi:guide
       position="-79.75,-182820"
       orientation="0,1"
       id="guide19"
       inkscape:locked="false"
       inkscape:label=""
       inkscape:color="rgb(0,134,229)" /></sodipodi:namedview><defs
     id="defs1"><inkscape:path-effect
       effect="fillet_chamfer"
       id="path-effect23"
       is_visible="true"
       lpeversion="1"
       nodesatellites_param="F,0,0,1,0,3,0,1 @ F,0,0,1,0,3,0,1 @ F,0,0,1,0,3,0,1 @ F,0,0,1,0,3,0,1"
       radius="0"
       unit="px"
       method="auto"
       mode="F"
       chamfer_steps="1"
       flexible="false"
       use_knot_distance="true"
       apply_no_radius="true"
       apply_with_radius="true"
       only_selected="false"
       hide_knots="false" /><inkscape:path-effect
       effect="fillet_chamfer"
       id="path-effect22"
       is_visible="true"
       lpeversion="1"
       nodesatellites_param="F,0,0,1,0,3,0,1 @ F,0,0,1,0,3,0,1 @ F,0,0,1,0,3,0,1 @ F,0,0,1,0,3,0,1"
       radius="0"
       unit="px"
       method="auto"
       mode="F"
       chamfer_steps="1"
       flexible="false"
       use_knot_distance="true"
       apply_no_radius="true"
       apply_with_radius="true"
       only_selected="false"
       hide_knots="false" /><inkscape:path-effect
       effect="fillet_chamfer"
       id="path-effect11"
       is_visible="true"
       lpeversion="1"
       nodesatellites_param="F,0,1,1,0,10,0,1 @ F,0,0,1,0,10,0,1 @ F,0,0,1,0,10,0,1 @ F,0,0,1,0,10,0,1"
       radius="0"
       unit="px"
       method="auto"
       mode="F"
       chamfer_steps="1"
       flexible="false"
       use_knot_distance="true"
       apply_no_radius="true"
       apply_with_radius="true"
       only_selected="false"
       hide_knots="false" /><inkscape:path-effect
       effect="fillet_chamfer"
       id="path-effect10"
       is_visible="true"
       lpeversion="1"
       nodesatellites_param="F,0,0,1,0,10,0,1 @ F,0,0,1,0,10,0,1 @ F,0,0,1,0,10,0,1 @ F,0,0,1,0,10,0,1"
       radius="0"
       unit="px"
       method="auto"
       mode="F"
       chamfer_steps="1"
       flexible="false"
       use_knot_distance="true"
       apply_no_radius="true"
       apply_with_radius="true"
       only_selected="false"
       hide_knots="false" /><inkscape:path-effect
       effect="fillet_chamfer"
       id="path-effect9"
       is_visible="true"
       lpeversion="1"
       nodesatellites_param="F,0,0,1,0,0,0,1 @ F,0,0,1,0,10,0,1 @ F,0,0,1,0,0,0,1 @ F,0,0,1,0,0,0,1"
       radius="0"
       unit="px"
       method="auto"
       mode="F"
       chamfer_steps="1"
       flexible="false"
       use_knot_distance="true"
       apply_no_radius="true"
       apply_with_radius="true"
       only_selected="false"
       hide_knots="false" /><inkscape:path-effect
       effect="fillet_chamfer"
       id="path-effect8"
       is_visible="true"
       lpeversion="1"
       nodesatellites_param="F,0,0,1,0,0,0,1 @ F,0,0,1,0,0,0,1 @ F,0,0,1,0,0,0,1 @ F,0,0,1,0,0,0,1"
       radius="0"
       unit="px"
       method="auto"
       mode="F"
       chamfer_steps="1"
       flexible="false"
       use_knot_distance="true"
       apply_no_radius="true"
       apply_with_radius="true"
       only_selected="false"
       hide_knots="false" /><inkscape:path-effect
       effect="fillet_chamfer"
       id="path-effect7"
       is_visible="true"
       lpeversion="1"
       nodesatellites_param="F,0,0,1,0,0,0,1 @ F,0,0,1,0,0,0,1 @ F,0,0,1,0,0,0,1 @ F,0,0,1,0,0,0,1"
       radius="0"
       unit="px"
       method="auto"
       mode="F"
       chamfer_steps="1"
       flexible="false"
       use_knot_distance="true"
       apply_no_radius="true"
       apply_with_radius="true"
       only_selected="false"
       hide_knots="false" /><inkscape:path-effect
       effect="fillet_chamfer"
       id="path-effect22-7"
       is_visible="true"
       lpeversion="1"
       nodesatellites_param="F,0,0,1,0,3,0,1 @ F,0,0,1,0,3,0,1 @ F,0,0,1,0,3,0,1 @ F,0,0,1,0,3,0,1"
       radius="0"
       unit="px"
       method="auto"
       mode="F"
       chamfer_steps="1"
       flexible="false"
       use_knot_distance="true"
       apply_no_radius="true"
       apply_with_radius="true"
       only_selected="false"
       hide_knots="false" /><inkscape:path-effect
       effect="fillet_chamfer"
       id="path-effect23-1"
       is_visible="true"
       lpeversion="1"
       nodesatellites_param="F,0,0,1,0,3,0,1 @ F,0,0,1,0,3,0,1 @ F,0,0,1,0,3,0,1 @ F,0,0,1,0,3,0,1"
       radius="0"
       unit="px"
       method="auto"
       mode="F"
       chamfer_steps="1"
       flexible="false"
       use_knot_distance="true"
       apply_no_radius="true"
       apply_with_radius="true"
       only_selected="false"
       hide_knots="false" /></defs><g
     inkscape:label="Background"
     inkscape:groupmode="layer"
     id="layer1"><path
       id="rect1"
       style="display:none;opacity:1;fill:#00ff00"
       d="m 10,0 h 110 a 10,10 45 0 1 10,10 v 160 a 10,10 135 0 1 -10,10 H 10 A 10,10 45 0 1 0,170 V 10 A 10,10 135 0 1 10,0 Z"
       inkscape:path-effect="#path-effect10"
       inkscape:original-d="M 0,0 H 130 V 180 H 0 Z"
       inkscape:label="rect1"
       sodipodi:insensitive="true" /><path
       id="rect2"
       style="opacity:1;fill:#ffffff;fill-opacity:1;stroke-width:1.00037"
       d="m 16,7 h 98 a 10,10 45 0 1 10,10 l 0,145 a 10,10 135 0 1 -10,10 H 16 A 10,10 45 0 1 6,162 V 17 A 10,10 135 0 1 16,7 Z"
       inkscape:path-effect="#path-effect11"
       inkscape:original-d="M 6,7 H 124 V 172 H 6 Z"
       inkscape:label="rect2" /></g><g
     inkscape:groupmode="layer"
     id="layer3"
     inkscape:label="Main"
     inkscape:highlight-color="#36a949" /><g
     inkscape:groupmode="layer"
     id="layer9"
     inkscape:label="Border"
     inkscape:highlight-color="#36a949"><path
       id="rect1_rect2_difference"
       style="display:inline;fill:#999999;stroke:none;stroke-width:5;stroke-dasharray:none"
       d="M 10,0 A 10,10 0 0 0 0,10 v 160 a 10,10 0 0 0 10,10 h 110 a 10,10 0 0 0 10,-10 V 10 A 10,10 0 0 0 120,0 Z m 6,7 h 98 a 10,10 0 0 1 10,10 v 145 a 10,10 0 0 1 -10,10 H 16 A 10,10 0 0 1 6,162 V 17 A 10,10 0 0 1 16,7 Z"
       inkscape:label="rect1_rect2_difference" /></g><g
     inkscape:groupmode="layer"
     id="layer4"
     inkscape:label="TextBottomRight"><path
       id="rect3"
       style="opacity:1;fill:#ffffff;fill-opacity:1;stroke-width:0.728914"
       d="m 94,154 h 24 a 3,3 45 0 1 3,3 v 9.5 a 3,3 135 0 1 -3,3 H 94 a 3,3 45 0 1 -3,-3 l 0,-9.5 a 3,3 135 0 1 3,-3 z"
       inkscape:path-effect="#path-effect23"
       inkscape:original-d="m 91,154 h 30 v 15.5 H 91 Z"
       transform="matrix(1,0,0,1.0322581,0,-5.4677474)"
       inkscape:label="rect3"
       sodipodi:nodetypes="ccccc" /><path
       id="rect4"
       style="opacity:1;fill:#999999;fill-opacity:1;stroke-width:1.05702"
       d="M 95.000131,154.5 H 117 a 2.9999443,2.9999443 45.000532 0 1 2.99994,3 l -1.4e-4,8 a 3.0000557,3.0000557 135.00053 0 1 -3.00006,3 H 94.999869 a 2.9999439,2.9999439 45.000536 0 1 -2.999944,-3 l 1.5e-4,-8 a 3.0000561,3.0000561 135.00054 0 1 3.000056,-3 z"
       sodipodi:nodetypes="ccccc"
       inkscape:path-effect="#path-effect22"
       inkscape:original-d="M 92.000131,154.5 H 120 l -2.6e-4,14 H 91.999869 Z"
       inkscape:label="rect4" /><text
       xml:space="preserve"
       style="font-style:normal;font-variant:normal;font-weight:normal;font-stretch:normal;font-size:12px;font-family:Sans;-inkscape-font-specification:Sans;text-align:start;writing-mode:lr-tb;direction:ltr;text-anchor:start;display:inline;opacity:1;fill:#000000;fill-opacity:1"
       x="92.615997"
       y="165.56799"
       id="text1"
       inkscape:label="text1"><tspan
         x="92.615997"
         y="165.56799"
         style="font-style:normal;font-variant:normal;font-weight:bold;font-stretch:normal;font-size:12px;font-family:Sans;-inkscape-font-specification:'Sans Bold';fill:#ffffff;fill-opacity:1"
         sodipodi:role="line"
         id="tspan25">IMM</tspan></text></g><g
     inkscape:groupmode="layer"
     id="layer5"
     inkscape:label="TextTopLeft"><path
       id="rect5"
       style="opacity:1;fill:#ffffff;fill-opacity:1;stroke-width:0.728914"
       d="m 98,154 h 24 a 3,3 45 0 1 3,3 v 9.5 a 3,3 135 0 1 -3,3 H 98 a 3,3 45 0 1 -3,-3 V 157 a 3,3 135 0 1 3,-3 z"
       inkscape:path-effect="#path-effect23-1"
       inkscape:original-d="m 95,154 h 30 v 15.5 H 95 Z"
       transform="matrix(1,0,0,1.0322581,-85,-147.96775)"
       inkscape:label="rect5"
       sodipodi:nodetypes="ccccc" /><path
       id="rect6"
       style="opacity:1;fill:#999999;fill-opacity:1;stroke-width:1.05702"
       d="m 99.000262,154.5 h 21.999868 a 2.9999443,2.9999443 45.000532 0 1 2.99994,3 l -1.4e-4,8 a 3.0000557,3.0000557 135.00053 0 1 -3.00006,3 H 99 a 2.9999439,2.9999439 45.000536 0 1 -2.999944,-3 l 1.5e-4,-8 a 3.0000561,3.0000561 135.00054 0 1 3.000056,-3 z"
       sodipodi:nodetypes="ccccc"
       inkscape:path-effect="#path-effect22-7"
       inkscape:original-d="m 96.000262,154.5 h 27.999868 l -2.6e-4,14 H 96 Z"
       transform="translate(-85,-142.5)"
       inkscape:label="rect6" /><text
       xml:space="preserve"
       style="font-style:normal;font-variant:normal;font-weight:normal;font-stretch:normal;font-size:12px;font-family:Sans;-inkscape-font-specification:Sans;text-align:start;writing-mode:lr-tb;direction:ltr;text-anchor:start;display:inline;opacity:1;fill:#000000;fill-opacity:1"
       x="11.616"
       y="23.067993"
       id="text2"
       inkscape:label="text2"><tspan
         x="11.616"
         y="23.067993"
         style="font-style:normal;font-variant:normal;font-weight:bold;font-stretch:normal;font-size:12px;font-family:Sans;-inkscape-font-specification:'Sans Bold';fill:#ffffff;fill-opacity:1"
         sodipodi:role="line"
         id="tspan363">IMM</tspan></text></g><metadata
     id="metadata1"><rdf:RDF><cc:Work
         rdf:about=""><cc:license
           rdf:resource="http://creativecommons.org/publicdomain/zero/1.0/" /></cc:Work><cc:License
         rdf:about="http://creativecommons.org/publicdomain/zero/1.0/"><cc:permits
           rdf:resource="http://creativecommons.org/ns#Reproduction" /><cc:permits
           rdf:resource="http://creativecommons.org/ns#Distribution" /><cc:permits
           rdf:resource="http://creativecommons.org/ns#DerivativeWorks" /></cc:License></rdf:RDF></metadata><inkscape:templateinfo><inkscape:name>CustomCardTemplate</inkscape:name><inkscape:author>Dan</inkscape:author><inkscape:date>2025-01-21</inkscape:date></inkscape:templateinfo></svg>
